<svg xmlns="http://www.w3.org/2000/svg" data-name="image breakdown" viewBox="0 0 93.81 70.96"><defs><linearGradient id="a" x1="-65.4" x2="4.22" y1="3669.92" y2="3669.92" data-name="New Gradient Swatch copy 4" gradientTransform="rotate(87.43 1909.969 1892.518)" gradientUnits="userSpaceOnUse"><stop offset="0" stop-color="#0be574"/><stop offset=".08" stop-color="#0ade81"/><stop offset=".24" stop-color="#07cea4"/><stop offset=".44" stop-color="#04b6d8"/><stop offset="1" stop-color="#fd5bfc"/></linearGradient><linearGradient id="b" x1="3575.71" x2="3658" y1="3892.45" y2="3892.45" gradientTransform="rotate(-126.48 859.18 2867.578)" gradientUnits="userSpaceOnUse"><stop offset=".13" stop-color="#fd5bfc" stop-opacity=".88"/><stop offset=".84" stop-color="#fd5bfc" stop-opacity="0"/></linearGradient></defs><path d="m1.32 14.74 84.52 52.28 6.65-10.79c4.78-7.72-10.27-25.69-33.61-40.12C35.54 1.67 12.75-3.77 7.97 3.95L1.32 14.74Z" style="fill:url(#a);stroke:#000;stroke-miterlimit:10;stroke-width:.87px"/><path d="m81.81 33.87-12.6 20.45 4.91 3.07L85.9 38.28a80.122 80.122 0 0 0-4.08-4.41Z" style="fill:#0be574;stroke:#000;stroke-miterlimit:10;stroke-width:.87px"/><path d="M85.89 38.28 74.72 56.4l7.84 7.49 9.73-15.79c-1.21-2.96-3.4-6.3-6.41-9.83Z" style="stroke:#000;stroke-miterlimit:10;stroke-width:.87px"/><ellipse cx="43.58" cy="40.88" rx="16.44" ry="49.69" style="fill:#281061;stroke:#000;stroke-miterlimit:10;stroke-width:.87px" transform="rotate(-58.26 43.584 40.88)"/><ellipse cx="43.58" cy="40.88" rx="16.44" ry="49.69" style="stroke:#000;stroke-miterlimit:10;stroke-width:.87px;fill:url(#b)" transform="rotate(-58.26 43.584 40.88)"/></svg>